<svg width="171" height="41" viewBox="0 0 171 41" fill="none" xmlns="http://www.w3.org/2000/svg">
<path d="M13.08 26.38C16.996 26.38 18.888 25.148 18.844 22.684C18.844 21.232 17.964 20.264 16.116 19.736C14.356 19.208 12.332 18.68 10.176 18.108C4.324 16.612 1.42 13.884 1.42 9.924C1.552 3.632 5.292 0.551999 12.684 0.595998C19.724 0.595998 23.376 3.676 23.728 9.88H20.296C19.02 9.88 18.14 9.264 17.568 8.12C16.556 6.404 14.752 5.568 12.156 5.568C8.988 5.612 7.404 6.8 7.272 9.088C7.272 10.98 9.164 12.344 13.08 13.224C15.324 13.752 17.7 14.412 20.208 15.292C23.552 16.436 25.136 18.9 24.96 22.684C24.608 28.536 20.648 31.44 13.08 31.44C5.16 31.44 1.156 28.14 0.98 21.628H6.92C7.14 24.796 9.164 26.38 13.08 26.38ZM27.9541 1.08H30.9901C32.9261 1.08 33.8501 2.048 33.8061 3.94V5.656H27.9541V1.08ZM27.9541 7.724H30.9901C32.8821 7.724 33.8061 8.648 33.8061 10.54V31H27.9541V7.724ZM42.9584 37.204C42.9584 39.14 41.9904 40.108 40.0544 40.108H37.1064V17.844C37.4144 10.892 41.0224 7.46 48.0184 7.46C55.2344 7.46 58.8424 11.376 58.8424 19.208C58.8424 27.128 55.7624 31.22 49.5584 31.44C46.6544 31.44 44.4544 30.252 42.9584 27.832V37.204ZM47.9304 26.204C51.0984 26.204 52.7264 23.96 52.8584 19.472C52.8584 14.764 51.1864 12.432 47.8424 12.432C44.4984 12.432 42.9144 14.764 42.9584 19.472C43.1344 23.96 44.7624 26.204 47.9304 26.204ZM82.6217 1.08H87.5497L98.2857 31H91.8177L89.8377 24.884H78.2657L76.2857 31H69.7297L79.7177 3.06C80.1577 1.74 81.1257 1.08 82.6217 1.08ZM83.9857 7.108L79.8937 19.824H88.1217L83.9857 7.108ZM101.228 31V18.988C101.404 11.464 105.408 7.724 113.196 7.724H114.032V13.796H112.052C108.796 13.796 107.168 15.512 107.168 18.9V31H101.228ZM122.064 23.344C122.196 25.896 124.044 26.776 126.904 26.776C129.368 26.776 130.6 26.072 130.6 24.576C130.6 23.388 128.576 22.42 124.572 21.716C119.424 20.792 116.784 18.504 116.74 14.852C116.74 9.836 120.7 7.46 126.024 7.372C129.016 7.372 131.392 8.032 133.152 9.352C134.868 10.716 135.792 12.608 135.924 15.028H132.228C130.864 14.984 129.984 14.5 129.632 13.576C129.236 12.564 128.048 11.992 126.112 11.992C123.824 11.992 122.68 12.608 122.68 13.796C122.68 14.984 124.176 15.908 127.212 16.48C131.172 17.272 133.768 18.284 135.044 19.472C136.144 20.616 136.672 22.024 136.672 23.608C136.672 29.328 132.184 31.44 126.024 31.44C122.768 31.44 120.304 30.736 118.72 29.372C116.96 28.052 116.08 26.028 116.08 23.344H122.064ZM139.212 1.08H142.248C144.184 1.08 145.108 2.048 145.064 3.94V5.656H139.212V1.08ZM139.212 7.724H142.248C144.14 7.724 145.064 8.648 145.064 10.54V31H139.212V7.724ZM154.217 37.204C154.217 39.14 153.249 40.108 151.313 40.108H148.365V17.844C148.673 10.892 152.281 7.46 159.277 7.46C166.493 7.46 170.101 11.376 170.101 19.208C170.101 27.128 167.021 31.22 160.817 31.44C157.913 31.44 155.713 30.252 154.217 27.832V37.204ZM159.189 26.204C162.357 26.204 163.985 23.96 164.117 19.472C164.117 14.764 162.445 12.432 159.101 12.432C155.757 12.432 154.173 14.764 154.217 19.472C154.393 23.96 156.021 26.204 159.189 26.204Z" fill="#3189FF"/>
</svg>
